<?xml version="1.0" standalone="no"?>
<!DOCTYPE svg PUBLIC "-//W3C//DTD SVG 1.0//EN" "http://www.w3.org/TR/2001/REC-SVG-20010904/DTD/svg10.dtd">
<svg xmlns="http://www.w3.org/2000/svg" xmlns:xlink="http://www.w3.org/1999/xlink" id="body_1" width="1161" height="1087">

<g transform="matrix(1.72 0 0 1.719937 0 0)">
	<g transform="matrix(0.2428057 0 0 -0.2430769 0 631.9999)">
	</g>
    <path transform="matrix(0.2428057 0 0 -0.2430769 0 631.9999)"  d="M1285 2029C 1102 1995 932 1830 864 1620C 838 1541 840 1385 868 1305C 928 1130 1020 1024 1179 947C 1250 913 1276 906 1343 902L1343 902L1421 897L1418 936L1415 974L1331 992C 1221 1016 1160 1050 1080 1130C 995 1215 949 1311 935 1430C 928 1501 951 1633 977 1658C 984 1665 990 1678 990 1687C 990 1724 1093 1838 1160 1875C 1179 1886 1202 1900 1210 1905C 1236 1923 1303 1943 1360 1949L1360 1949L1415 1955L1415 1995C 1415 2035 1415 2035 1375 2037C 1353 2037 1313 2034 1285 2029z" stroke="none" fill="#000000" fill-rule="nonzero" />
	<g transform="matrix(0.2428057 0 0 -0.2430769 0 631.9999)">
	</g>
    <path transform="matrix(0.2428057 0 0 -0.2430769 0 631.9999)"  d="M1270 1780C 1173 1727 1106 1639 1081 1529C 1067 1473 1068 1454 1089 1372C 1111 1286 1182 1201 1265 1161C 1314 1138 1398 1117 1411 1125C 1416 1129 1420 1201 1420 1290C 1420 1377 1424 1451 1428 1454C 1432 1456 1503 1460 1585 1461C 1668 1462 1741 1465 1748 1467C 1763 1473 1765 1566 1750 1575C 1745 1578 1740 1591 1740 1603C 1740 1627 1681 1707 1640 1738C 1626 1749 1592 1769 1563 1784C 1518 1807 1498 1810 1418 1810C 1334 1810 1320 1807 1270 1780z" stroke="none" fill="#000000" fill-rule="nonzero" />
	<g transform="matrix(0.2428057 0 0 -0.2430769 0 631.9999)">
	</g>
    <path transform="matrix(0.2428057 0 0 -0.2430769 0 631.9999)"  d="M627 1463C 623 1460 620 1437 620 1412C 620 1319 677 1153 751 1030C 802 946 928 824 1007 783C 1019 777 1044 764 1062 754C 1080 745 1103 733 1113 728C 1154 708 1219 691 1280 684C 1316 680 1355 673 1367 669C 1406 654 1421 668 1418 714L1418 714L1415 755L1345 761C 1122 779 887 944 788 1150C 738 1255 720 1319 720 1391C 720 1421 715 1451 708 1458C 695 1471 638 1475 627 1463z" stroke="none" fill="#000000" fill-rule="nonzero" />
</g>
</svg>