<?xml version="1.0" standalone="no"?>
<!DOCTYPE svg PUBLIC "-//W3C//DTD SVG 20010904//EN"
 "http://www.w3.org/TR/2001/REC-SVG-20010904/DTD/svg10.dtd">
<svg version="1.0" xmlns="http://www.w3.org/2000/svg"
 width="411.000000pt" height="364.000000pt" viewBox="0 0 411.000000 364.000000"
 preserveAspectRatio="xMidYMid meet">
<metadata>
Created by potrace 1.16, written by Peter Selinger 2001-2019
</metadata>
<g transform="translate(0.000000,364.000000) scale(0.100000,-0.100000)"
fill="#000000" stroke="none">
<path d="M1695 3024 c-146 -29 -183 -43 -286 -109 -112 -72 -254 -252 -303
-384 -71 -191 -61 -403 28 -585 80 -165 151 -243 309 -338 100 -60 180 -85
298 -94 l92 -7 -6 24 c-4 13 -7 36 -7 50 0 25 -5 28 -107 53 -131 32 -211 70
-284 133 -168 147 -249 310 -249 503 0 100 20 180 74 293 37 77 57 105 115
160 123 116 232 168 404 192 l47 6 0 48 c0 42 -3 50 -22 55 -25 6 -70 6 -103
0z"/>
<path d="M1719 2721 c-109 -21 -255 -145 -309 -264 -46 -101 -56 -176 -36
-271 39 -190 173 -323 369 -367 48 -10 60 -10 67 1 4 7 11 104 15 217 5 130
11 206 19 210 6 4 101 10 213 13 111 3 205 8 208 12 4 4 10 27 12 52 10 86
-68 235 -160 304 -18 13 -62 39 -99 58 -58 29 -79 34 -160 38 -51 3 -114 1
-139 -3z"/>
<path d="M767 2263 c-4 -3 -7 -36 -7 -72 0 -70 28 -185 74 -306 95 -249 278
-450 516 -570 106 -53 166 -72 303 -95 67 -11 123 -22 125 -25 3 -2 13 0 23 6
15 8 19 21 19 64 l0 55 -32 0 c-72 0 -211 30 -290 62 -125 51 -217 109 -306
193 -101 95 -150 159 -207 270 -60 118 -84 199 -94 314 -5 61 -13 96 -22 102
-16 10 -93 12 -102 2z"/>
</g>
</svg>
